<svg width="360" height="220" viewBox="0 0 360 220" fill="none" xmlns="http://www.w3.org/2000/svg">
  <rect width="360" height="220" rx="24" fill="#EFF6FF"/>
  <rect x="38" y="56" width="36" height="120" rx="8" fill="#DBEAFE" stroke="#60A5FA" stroke-width="2"/>
  <rect x="74" y="56" width="36" height="120" rx="8" fill="#FFFFFF" stroke="#93C5FD"/>
  <rect x="110" y="56" width="36" height="120" rx="8" fill="#FFFFFF" stroke="#93C5FD"/>
  <rect x="146" y="56" width="36" height="120" rx="8" fill="#FFFFFF" stroke="#93C5FD"/>
  <rect x="182" y="56" width="36" height="120" rx="8" fill="#FFFFFF" stroke="#93C5FD"/>
  <rect x="218" y="56" width="36" height="120" rx="8" fill="#FFFFFF" stroke="#93C5FD"/>
  <rect x="254" y="56" width="36" height="120" rx="8" fill="#FFFFFF" stroke="#93C5FD"/>
  <rect x="66" y="56" width="24" height="76" rx="6" fill="#111827"/>
  <rect x="102" y="56" width="24" height="76" rx="6" fill="#111827"/>
  <path d="M104 34C89 34 77 40 66 52" stroke="#2563EB" stroke-width="4" stroke-linecap="round"/>
  <path d="M66 52L69 39L79 47" fill="#2563EB"/>
  <text x="56" y="192" text-anchor="middle" font-size="18" font-weight="700" fill="#1D4ED8" font-family="Arial, sans-serif">Do</text>
  <text x="186" y="200" text-anchor="middle" font-size="18" font-weight="700" fill="#1E3A8A" font-family="Arial, sans-serif">Do está antes del grupo de 2</text>
</svg>
