<svg width="360" height="220" viewBox="0 0 360 220" fill="none" xmlns="http://www.w3.org/2000/svg">
  <rect width="360" height="220" rx="24" fill="#F5F3FF"/>
  <rect x="28" y="56" width="32" height="120" rx="8" fill="#FFFFFF" stroke="#C4B5FD"/>
  <rect x="60" y="56" width="32" height="120" rx="8" fill="#FFFFFF" stroke="#C4B5FD"/>
  <rect x="92" y="56" width="32" height="120" rx="8" fill="#FFFFFF" stroke="#C4B5FD"/>
  <rect x="124" y="56" width="32" height="120" rx="8" fill="#FFFFFF" stroke="#C4B5FD"/>
  <rect x="156" y="56" width="32" height="120" rx="8" fill="#FFFFFF" stroke="#C4B5FD"/>
  <rect x="188" y="56" width="32" height="120" rx="8" fill="#FFFFFF" stroke="#C4B5FD"/>
  <rect x="220" y="56" width="32" height="120" rx="8" fill="#FFFFFF" stroke="#C4B5FD"/>
  <rect x="50" y="56" width="22" height="74" rx="6" fill="#111827"/>
  <rect x="82" y="56" width="22" height="74" rx="6" fill="#111827"/>
  <rect x="146" y="56" width="22" height="74" rx="6" fill="#111827"/>
  <rect x="178" y="56" width="22" height="74" rx="6" fill="#111827"/>
  <rect x="210" y="56" width="22" height="74" rx="6" fill="#111827"/>
  <rect x="36" y="28" width="84" height="20" rx="10" fill="#C4B5FD"/>
  <rect x="144" y="28" width="116" height="20" rx="10" fill="#A78BFA"/>
  <text x="78" y="42" text-anchor="middle" font-size="12" fill="#312E81" font-family="Arial, sans-serif">Grupo de 2</text>
  <text x="202" y="42" text-anchor="middle" font-size="12" fill="#312E81" font-family="Arial, sans-serif">Grupo de 3</text>
  <text x="180" y="200" text-anchor="middle" font-size="18" font-weight="700" fill="#5B21B6" font-family="Arial, sans-serif">Patrón 2 + 3</text>
</svg>
